<?xml version="1.0" standalone="no"?>
<!DOCTYPE svg PUBLIC "-//W3C//DTD SVG 20010904//EN"
 "http://www.w3.org/TR/2001/REC-SVG-20010904/DTD/svg10.dtd">
<svg version="1.0" xmlns="http://www.w3.org/2000/svg"
 width="1010.000000pt" height="1280.000000pt" viewBox="0 0 1010.000000 1280.000000"
 preserveAspectRatio="xMidYMid meet">
<metadata>
Created by potrace 1.15, written by Peter Selinger 2001-2017
</metadata>
<g transform="translate(0.000000,1280.000000) scale(0.100000,-0.100000)"
   fill="#e5eaf6" stroke="none">
<path d="M5005 12781 c-94 -24 -135 -42 -178 -81 -94 -82 -57 -204 115 -372
l78 -77 -52 -5 c-29 -3 -93 -8 -142 -11 -298 -20 -324 -78 -86 -194 52 -25 97
-47 99 -48 2 -1 -39 -43 -91 -93 -104 -97 -123 -129 -140 -221 -8 -49 -13 -59
-27 -54 -122 49 -420 138 -511 153 -94 16 -215 30 -371 43 -183 15 -339 -5
-339 -43 0 -7 24 -36 54 -64 39 -38 87 -69 168 -108 159 -78 254 -109 768
-254 l55 -15 -75 -19 c-162 -40 -268 -72 -327 -98 -144 -65 -94 -112 205 -190
45 -12 82 -25 82 -29 0 -4 -37 -25 -82 -46 -206 -101 -210 -145 -13 -180 48
-8 89 -15 91 -15 4 0 -6 -176 -12 -218 l-5 -33 -62 56 c-88 80 -187 127 -279
132 -66 4 -78 2 -128 -24 -170 -90 -205 -318 -69 -454 81 -81 206 -75 422 20
26 11 47 17 47 14 0 -3 -11 -20 -24 -38 -39 -51 -121 -211 -164 -320 -82 -208
-166 -504 -227 -806 l-28 -136 -71 -13 c-39 -7 -139 -32 -223 -56 -533 -152
-975 -448 -1353 -904 l-53 -65 64 -7 c35 -4 136 -11 224 -17 88 -6 200 -18
250 -27 102 -18 261 -66 290 -88 18 -14 14 -15 -50 -16 -146 0 -401 -41 -627
-100 -339 -88 -655 -210 -1368 -528 l-245 -110 -62 -88 c-208 -294 -216 -360
-65 -488 42 -36 106 -91 142 -122 149 -129 356 -275 535 -379 87 -50 289 -154
327 -168 9 -3 4 -15 -18 -38 -50 -54 -64 -81 -64 -120 0 -47 29 -83 91 -114
49 -26 233 -75 279 -75 52 -1 65 -23 65 -111 l1 -80 -84 -56 c-164 -111 -338
-295 -474 -503 -322 -492 -550 -1292 -584 -2047 l-7 -151 229 -75 229 -75 13
-88 c14 -100 42 -194 72 -239 28 -43 109 -123 131 -130 11 -4 19 -10 19 -14 0
-4 -64 -26 -142 -49 -178 -51 -211 -65 -237 -98 -19 -24 -20 -30 -8 -48 23
-35 90 -81 163 -111 38 -16 71 -30 73 -31 2 -2 -20 -43 -48 -91 -133 -234
-188 -495 -161 -768 6 -66 12 -124 13 -129 1 -5 -18 -13 -43 -18 -397 -74
-612 -145 -800 -266 -53 -33 -180 -148 -180 -162 0 -4 683 -10 1517 -13 1510
-7 1516 -7 1551 -28 l36 -20 215 21 c119 12 217 23 218 24 2 2 -50 718 -107
1471 -55 727 -39 595 80 -685 40 -421 74 -772 78 -780 3 -8 4 -18 4 -22 -2
-10 2691 -11 3068 -1 l274 6 -85 81 c-47 45 -124 107 -173 139 -190 127 -474
243 -702 288 l-112 22 -6 111 c-22 359 -88 578 -229 765 -31 41 -54 78 -51 83
3 4 45 28 94 54 49 25 101 55 115 66 33 26 29 58 -7 76 -32 15 -135 37 -221
47 -54 6 -58 8 -52 28 3 12 9 100 12 194 5 147 8 173 22 177 9 3 45 10 81 16
67 12 443 92 448 95 5 4 -76 347 -134 570 -218 831 -475 1434 -839 1966 -90
132 -105 159 -87 159 61 2 206 24 251 40 l60 20 72 -31 c93 -40 390 -149 499
-184 235 -75 348 -107 375 -106 17 0 36 -4 44 -8 19 -12 11 -14 -214 -52 -117
-19 -194 -37 -201 -46 -7 -8 -17 -49 -23 -91 -21 -149 22 -283 128 -392 l56
-59 190 54 c105 30 193 55 198 55 4 0 7 -9 7 -20 0 -23 75 -70 113 -70 14 0
46 16 71 35 l46 35 46 -25 c55 -29 93 -31 178 -9 91 24 105 24 144 -2 20 -14
60 -32 91 -40 69 -21 133 -8 197 38 l44 31 0 134 c0 97 4 138 13 147 7 8 40
21 72 30 33 9 69 21 80 26 11 6 39 16 62 24 l43 15 16 -56 16 -56 357 6 c688
12 1200 86 1686 244 141 46 354 128 368 142 4 4 -14 145 -40 313 l-46 306 -36
6 c-20 3 -124 13 -231 22 -245 20 -724 15 -930 -10 -454 -56 -848 -185 -1179
-385 -46 -28 -87 -51 -92 -51 -16 0 -16 -29 2 -85 10 -33 17 -64 15 -70 -3 -5
-5 -1 -5 9 -1 17 -7 18 -56 13 -30 -3 -57 -1 -60 4 -4 5 -14 9 -24 9 -10 0
-42 36 -82 92 -78 112 -152 188 -241 248 -37 25 -68 50 -68 56 0 18 -48 99
-67 116 -10 9 -35 21 -55 27 -20 7 -73 34 -117 60 -141 85 -353 151 -681 212
-91 16 -175 33 -188 36 -47 11 -230 379 -382 767 -27 71 -50 130 -50 131 0 1
15 5 33 8 226 39 334 59 345 62 34 12 -117 253 -228 366 l-78 78 82 32 c196
76 439 116 653 106 l124 -5 -23 28 c-181 220 -280 368 -552 819 -114 188 -231
380 -261 426 l-54 84 60 213 60 213 39 0 c31 1 47 8 75 35 l36 35 37 -45 c60
-74 111 -122 124 -118 31 11 25 111 -17 291 -15 60 -28 114 -31 121 -4 9 23
11 116 8 267 -10 384 56 382 212 -1 49 -8 75 -41 141 -42 85 -98 151 -359 424
l-132 139 47 11 c118 30 213 126 213 216 0 29 2 30 66 10 89 -27 255 -39 529
-40 267 0 685 21 685 36 0 4 -60 26 -132 48 -426 133 -665 240 -878 390 -50
35 -108 80 -130 100 l-39 36 -11 365 c-6 201 -15 403 -20 450 -15 125 -56 282
-102 388 l-40 92 -249 0 -249 0 -16 28 c-61 101 -131 196 -174 236 -102 95
-224 124 -365 87z m-2750 -6003 c0 -72 25 -124 102 -215 l45 -53 -70 0 c-68 0
-74 2 -224 81 -84 45 -156 85 -161 88 -4 4 59 38 140 76 82 38 152 72 158 77
5 4 9 8 10 8 0 0 0 -28 0 -62z"/>
</g>
</svg>
